<?xml version="1.0" encoding="UTF-8" standalone="no"?>
<!-- Created with Inkscape (http://www.inkscape.org/) -->

<svg
   width="512"
   height="512"
   viewBox="0 0 135.46666 135.46667"
   version="1.1"
   id="svg5"
   xml:space="preserve"
   xmlns="http://www.w3.org/2000/svg"
   xmlns:svg="http://www.w3.org/2000/svg"><defs
     id="defs2"><filter
       style="color-interpolation-filters:sRGB"
       id="filter2678"
       x="-0.049188312"
       y="-0.042319927"
       width="1.0983766"
       height="1.1199065"><feFlood
         flood-opacity="0.101961"
         flood-color="rgb(0,0,0)"
         result="flood"
         id="feFlood2668" /><feComposite
         in="flood"
         in2="SourceGraphic"
         operator="in"
         result="composite1"
         id="feComposite2670" /><feGaussianBlur
         in="composite1"
         stdDeviation="2"
         result="blur"
         id="feGaussianBlur2672" /><feOffset
         dx="0"
         dy="4"
         result="offset"
         id="feOffset2674" /><feComposite
         in="SourceGraphic"
         in2="offset"
         operator="over"
         result="composite2"
         id="feComposite2676" /></filter><filter
       style="color-interpolation-filters:sRGB"
       id="filter630"
       x="-0.087606914"
       y="-0.087611698"
       width="1.1752138"
       height="1.2026021"><feFlood
         flood-opacity="0.223529"
         flood-color="rgb(0,0,0)"
         result="flood"
         id="feFlood620" /><feComposite
         in="flood"
         in2="SourceGraphic"
         operator="in"
         result="composite1"
         id="feComposite622" /><feGaussianBlur
         in="composite1"
         stdDeviation="4"
         result="blur"
         id="feGaussianBlur624" /><feOffset
         dx="0"
         dy="3"
         result="offset"
         id="feOffset626" /><feComposite
         in="SourceGraphic"
         in2="offset"
         operator="over"
         result="composite2"
         id="feComposite628" /></filter></defs><g
     id="layer1"><path
       id="rect579"
       style="fill:#0b7f4e;fill-opacity:1;stroke-width:0;stroke-linecap:round;stroke-linejoin:round;filter:url(#filter630)"
       d="m 81.435081,12.94755 c -2.246519,0.0036 -4.434463,0.01391 -6.406844,0.02687 H 60.43843 c -3.135586,-0.0206 -6.809806,-0.03475 -10.406083,-0.02532 -1.445794,0.0038 -2.862645,0.01278 -4.240051,0.02532 H 45.6383 v 0.0015 c -3.754684,0.0353 -7.103438,0.106145 -9.180835,0.238745 -5.060754,0.323027 -9.465255,1.787932 -12.902571,3.920691 h -0.0026 v 0.0016 c -1.751522,1.087092 -3.252428,2.347279 -4.459676,3.719153 -3.576704,4.064435 -6.149496,9.916979 -6.149496,16.745231 0,5.951601 0.06985,24.769334 0.08992,30.132011 -0.02007,5.362677 -0.08992,24.18041 -0.08992,30.132011 0,6.828258 2.572792,12.681308 6.149496,16.745758 3.576702,4.06442 9.723694,7.15314 17.364831,7.64087 2.077397,0.1326 5.42615,0.20396 9.180835,0.23927 v 0.0253 h 4.0566 c 1.474233,0.004 2.948801,0.002 4.414718,0 h 25.917797 v -5.2e-4 c 7.110699,0.0201 15.166393,-0.0205 18.981788,-0.26407 7.641123,-0.48773 13.788123,-3.57645 17.364833,-7.64087 3.57669,-4.06445 6.14949,-9.9175 6.14949,-16.745758 0,-5.951601 -0.0699,-24.769334 -0.0899,-30.132011 0.0201,-5.362677 0.0899,-24.18041 0.0899,-30.132011 0,-6.828252 -2.5728,-12.680796 -6.14949,-16.745231 -3.57671,-4.064435 -9.72371,-7.153661 -17.364833,-7.641394 -3.566548,-0.227652 -10.834563,-0.278014 -17.574122,-0.267167 z" /><g
       id="g2642"
       transform="matrix(0.66945162,0,0,0.77010713,23.686783,15.919557)"
       style="filter:url(#filter2678)"><path
         style="fill:#ffffff;fill-opacity:1;stroke-width:0;stroke-linecap:round;stroke-linejoin:round"
         d="M 113.60713,14.067453 47.037417,23.56681 21.859531,35.944558 27.979166,65.329615 Z"
         id="path522" /><path
         style="fill:#ffffff;fill-opacity:0.795359;stroke-width:0.867553;stroke-linecap:round;stroke-linejoin:round;stroke-dasharray:none"
         d="m 21.859531,35.944558 6.119635,29.385057 73.640684,7.060429 17.82384,-28.103724 z"
         id="path524" /><path
         style="fill:#ffffff;fill-opacity:1;stroke-width:0;stroke-linecap:round;stroke-linejoin:round"
         d="M 119.44369,44.28632 101.61985,72.390044 38.35989,106.02036 26.038272,83.176014 Z"
         id="path526" /><path
         style="fill:#ffffff;fill-opacity:0.700422;stroke-width:0.867553;stroke-linecap:round;stroke-linejoin:round;stroke-dasharray:none"
         d="M 26.038272,83.176014 38.35989,106.02036 72.082213,114.70456 88.00122,95.063885 Z"
         id="path528" /><path
         style="fill:#ffffff;fill-opacity:1;stroke-width:0;stroke-linecap:round;stroke-linejoin:round"
         d="M 88.00122,95.063885 39.687507,127.4892 72.082213,114.70456 Z"
         id="path530" /></g></g></svg>
